<mxfile host="app.diagrams.net" modified="2023-07-21T07:46:20.283Z" agent="Mozilla/5.0 (Macintosh; Intel Mac OS X 10_15_7) AppleWebKit/537.36 (KHTML, like Gecko) Chrome/114.0.0.0 Safari/537.36" version="21.6.3" etag="6l-S9z2cQGm8RoH8JFEE" type="github">
  <diagram name="第 1 页" id="2xDWMr0NoB1iiFJtD1Cg">
    <mxGraphModel>
      <root>
        <mxCell id="0" />
        <mxCell id="1" parent="0" />
      </root>
    </mxGraphModel>
  </diagram>
</mxfile>
